<svg xmlns="http://www.w3.org/2000/svg" viewBox="0 0 900 220" width="900" height="220" font-family="-apple-system, BlinkMacSystemFont, 'Segoe UI', Roboto, Arial, sans-serif">
<rect x="0" y="0" width="900" height="220" fill="#ffffff"/>
<rect x="14" y="26" width="330" height="150" rx="8" fill="#f8fafc" stroke="#cbd5e1" stroke-dasharray="5 3"/>
<text x="179" y="46" text-anchor="middle" font-size="11" font-weight="600" fill="#64748b">수동 작업</text>
<rect x="358" y="26" width="528" height="150" rx="8" fill="#f0f9ff" stroke="#93c5fd" stroke-dasharray="5 3"/>
<text x="622" y="46" text-anchor="middle" font-size="11" font-weight="600" fill="#1d4ed8">배포 노드에서 플레이북 실행</text>
<rect x="28" y="62" width="150" height="98" rx="6" fill="#f8fafc" stroke="#94a3b8" stroke-width="1.8"/>
<circle cx="44" cy="78" r="10" fill="#94a3b8"/>
<text x="44" y="82" text-anchor="middle" font-size="11" font-weight="700" fill="#ffffff">1</text>
<text x="103.0" y="112" text-anchor="middle" font-size="12" font-weight="600" fill="#0f172a">OS 설치</text>
<text x="103.0" y="132" text-anchor="middle" font-size="9" fill="#64748b">베어메탈 설치</text>
<polygon points="182,105.0 196,111.0 182,117.0" fill="#94a3b8"/>
<rect x="200" y="62" width="150" height="98" rx="6" fill="#f8fafc" stroke="#94a3b8" stroke-width="1.8"/>
<circle cx="216" cy="78" r="10" fill="#94a3b8"/>
<text x="216" y="82" text-anchor="middle" font-size="11" font-weight="700" fill="#ffffff">2</text>
<text x="275.0" y="112" text-anchor="middle" font-size="12" font-weight="600" fill="#0f172a">임시 IP 부여</text>
<text x="275.0" y="132" text-anchor="middle" font-size="9" fill="#64748b">ip addr</text>
<polygon points="354,105.0 368,111.0 354,117.0" fill="#94a3b8"/>
<rect x="372" y="62" width="150" height="98" rx="6" fill="#eff6ff" stroke="#2563eb" stroke-width="1.8"/>
<circle cx="388" cy="78" r="10" fill="#2563eb"/>
<text x="388" y="82" text-anchor="middle" font-size="11" font-weight="700" fill="#ffffff">3</text>
<text x="447.0" y="112" text-anchor="middle" font-size="12" font-weight="600" fill="#0f172a">initial-setup.yml</text>
<text x="447.0" y="132" text-anchor="middle" font-size="9" fill="#64748b">패키지 · 시간 · 호스트명</text>
<text x="447.0" y="145" text-anchor="middle" font-size="9" fill="#64748b">오프라인 저장소</text>
<polygon points="526,105.0 540,111.0 526,117.0" fill="#94a3b8"/>
<rect x="544" y="62" width="150" height="98" rx="6" fill="#ecfdf5" stroke="#059669" stroke-width="1.8"/>
<circle cx="560" cy="78" r="10" fill="#059669"/>
<text x="560" y="82" text-anchor="middle" font-size="11" font-weight="700" fill="#ffffff">4</text>
<text x="619.0" y="112" text-anchor="middle" font-size="12" font-weight="600" fill="#0f172a">setup-hosts.yml</text>
<text x="619.0" y="132" text-anchor="middle" font-size="9" fill="#64748b">bond · VLAN · bridge</text>
<polygon points="698,105.0 712,111.0 698,117.0" fill="#94a3b8"/>
<rect x="716" y="62" width="150" height="98" rx="6" fill="#f5f3ff" stroke="#7c3aed" stroke-width="1.8"/>
<circle cx="732" cy="78" r="10" fill="#7c3aed"/>
<text x="732" y="82" text-anchor="middle" font-size="11" font-weight="700" fill="#ffffff">5</text>
<text x="791.0" y="112" text-anchor="middle" font-size="12" font-weight="600" fill="#0f172a">OpenStack 배포</text>
<text x="791.0" y="132" text-anchor="middle" font-size="9" fill="#64748b">서비스 구성</text>
<text x="450.0" y="200" text-anchor="middle" font-size="10" fill="#64748b">손으로 하는 건 1~2단계뿐, 3단계부터는 배포 노드에서 일괄 처리</text>
</svg>