<svg xmlns="http://www.w3.org/2000/svg" viewBox="0 0 940 470" width="940" height="470" font-family="-apple-system, BlinkMacSystemFont, 'Segoe UI', Roboto, Arial, sans-serif">
<rect x="0" y="0" width="940" height="470" fill="#ffffff"/>
<rect x="24" y="34" width="130" height="386" rx="8" fill="#f8fafc" stroke="#e2e8f0"/>
<text x="89.0" y="56" text-anchor="middle" font-size="11" font-weight="600" fill="#64748b">물리 NIC</text>
<rect x="196" y="34" width="130" height="386" rx="8" fill="#f8fafc" stroke="#e2e8f0"/>
<text x="261.0" y="56" text-anchor="middle" font-size="11" font-weight="600" fill="#64748b">Bond</text>
<rect x="382" y="34" width="144" height="386" rx="8" fill="#f8fafc" stroke="#e2e8f0"/>
<text x="454.0" y="56" text-anchor="middle" font-size="11" font-weight="600" fill="#64748b">VLAN</text>
<rect x="626" y="34" width="220" height="386" rx="8" fill="#f8fafc" stroke="#e2e8f0"/>
<text x="736.0" y="56" text-anchor="middle" font-size="11" font-weight="600" fill="#64748b">Bridge</text>
<rect x="34" y="83" width="110" height="34" rx="5" fill="#ffffff" stroke="#475569" stroke-width="1.7"/>
<text x="89.0" y="104.0" text-anchor="middle" font-size="11.5" font-weight="600" fill="#0f172a">enp1s0</text>
<rect x="34" y="213" width="110" height="34" rx="5" fill="#ffffff" stroke="#475569" stroke-width="1.7"/>
<text x="89.0" y="234.0" text-anchor="middle" font-size="11.5" font-weight="600" fill="#0f172a">enp2s0</text>
<rect x="34" y="373" width="110" height="34" rx="5" fill="#ffffff" stroke="#475569" stroke-width="1.7"/>
<text x="89.0" y="394.0" text-anchor="middle" font-size="11.5" font-weight="600" fill="#0f172a">enp3s0</text>
<rect x="206" y="83" width="110" height="34" rx="5" fill="#ffffff" stroke="#475569" stroke-width="1.7"/>
<text x="261.0" y="99.0" text-anchor="middle" font-size="11.5" font-weight="600" fill="#0f172a">bond0</text>
<text x="261.0" y="113.0" text-anchor="middle" font-size="8.5" fill="#64748b">외부 전용</text>
<rect x="206" y="213" width="110" height="34" rx="5" fill="#ffffff" stroke="#475569" stroke-width="1.7"/>
<text x="261.0" y="229.0" text-anchor="middle" font-size="11.5" font-weight="600" fill="#0f172a">bond1</text>
<text x="261.0" y="243.0" text-anchor="middle" font-size="8.5" fill="#64748b">VLAN 태깅</text>
<rect x="206" y="373" width="110" height="34" rx="5" fill="#ffffff" stroke="#475569" stroke-width="1.7" stroke-dasharray="4 3"/>
<text x="261.0" y="389.0" text-anchor="middle" font-size="11.5" font-weight="600" fill="#0f172a">bond2</text>
<text x="261.0" y="403.0" text-anchor="middle" font-size="8.5" fill="#64748b">예비 (미사용)</text>
<rect x="392" y="123" width="124" height="34" rx="5" fill="#ffffff" stroke="#e11d48" stroke-width="1.7"/>
<text x="454.0" y="139.0" text-anchor="middle" font-size="11.5" font-weight="600" fill="#0f172a">bond1.11</text>
<text x="454.0" y="153.0" text-anchor="middle" font-size="8.5" fill="#64748b">VLAN 11</text>
<rect x="392" y="179" width="124" height="34" rx="5" fill="#ffffff" stroke="#2563eb" stroke-width="1.7"/>
<text x="454.0" y="195.0" text-anchor="middle" font-size="11.5" font-weight="600" fill="#0f172a">bond1.12</text>
<text x="454.0" y="209.0" text-anchor="middle" font-size="8.5" fill="#64748b">VLAN 12</text>
<rect x="392" y="235" width="124" height="34" rx="5" fill="#ffffff" stroke="#f59e0b" stroke-width="1.7"/>
<text x="454.0" y="251.0" text-anchor="middle" font-size="11.5" font-weight="600" fill="#0f172a">bond1.13</text>
<text x="454.0" y="265.0" text-anchor="middle" font-size="8.5" fill="#64748b">VLAN 13</text>
<rect x="392" y="291" width="124" height="34" rx="5" fill="#ffffff" stroke="#059669" stroke-width="1.7"/>
<text x="454.0" y="307.0" text-anchor="middle" font-size="11.5" font-weight="600" fill="#0f172a">bond1.14</text>
<text x="454.0" y="321.0" text-anchor="middle" font-size="8.5" fill="#64748b">VLAN 14</text>
<rect x="392" y="347" width="124" height="34" rx="5" fill="#ffffff" stroke="#0891b2" stroke-width="1.7"/>
<text x="454.0" y="363.0" text-anchor="middle" font-size="11.5" font-weight="600" fill="#0f172a">bond1.15</text>
<text x="454.0" y="377.0" text-anchor="middle" font-size="8.5" fill="#64748b">VLAN 15</text>
<rect x="636" y="67" width="200" height="34" rx="5" fill="#ffffff" stroke="#7c3aed" stroke-width="1.7"/>
<text x="736.0" y="83.0" text-anchor="middle" font-size="11.5" font-weight="600" fill="#0f172a">br-ext</text>
<text x="736.0" y="97.0" text-anchor="middle" font-size="8.5" fill="#64748b">External API</text>
<rect x="636" y="123" width="200" height="34" rx="5" fill="#ffffff" stroke="#e11d48" stroke-width="1.7"/>
<text x="736.0" y="139.0" text-anchor="middle" font-size="11.5" font-weight="600" fill="#0f172a">br-mgmt</text>
<text x="736.0" y="153.0" text-anchor="middle" font-size="8.5" fill="#64748b">Management</text>
<rect x="636" y="179" width="200" height="34" rx="5" fill="#ffffff" stroke="#2563eb" stroke-width="1.7"/>
<text x="736.0" y="195.0" text-anchor="middle" font-size="11.5" font-weight="600" fill="#0f172a">br-vxlan</text>
<text x="736.0" y="209.0" text-anchor="middle" font-size="8.5" fill="#64748b">Tenant (VXLAN)</text>
<rect x="636" y="235" width="200" height="34" rx="5" fill="#ffffff" stroke="#f59e0b" stroke-width="1.7"/>
<text x="736.0" y="251.0" text-anchor="middle" font-size="11.5" font-weight="600" fill="#0f172a">br-lbaas</text>
<text x="736.0" y="265.0" text-anchor="middle" font-size="8.5" fill="#64748b">LBaaS — 컨트롤러만</text>
<rect x="636" y="291" width="200" height="34" rx="5" fill="#ffffff" stroke="#059669" stroke-width="1.7"/>
<text x="736.0" y="307.0" text-anchor="middle" font-size="11.5" font-weight="600" fill="#0f172a">br-storage</text>
<text x="736.0" y="321.0" text-anchor="middle" font-size="8.5" fill="#64748b">Storage</text>
<rect x="636" y="347" width="200" height="34" rx="5" fill="#ffffff" stroke="#0891b2" stroke-width="1.7"/>
<text x="736.0" y="363.0" text-anchor="middle" font-size="11.5" font-weight="600" fill="#0f172a">br-stor-cluster</text>
<text x="736.0" y="377.0" text-anchor="middle" font-size="8.5" fill="#64748b">복제 — 컨트롤러만</text>
<path d="M 144 100 C 175.0 100, 175.0 100, 197 100" fill="none" stroke="#475569" stroke-width="1.6"/>
<polygon points="197,95.5 206,100 197,104.5" fill="#475569"/>
<path d="M 144 230 C 175.0 230, 175.0 230, 197 230" fill="none" stroke="#475569" stroke-width="1.6"/>
<polygon points="197,225.5 206,230 197,234.5" fill="#475569"/>
<path d="M 144 390 C 175.0 390, 175.0 390, 197 390" fill="none" stroke="#475569" stroke-width="1.6"/>
<polygon points="197,385.5 206,390 197,394.5" fill="#475569"/>
<path d="M 316 100 C 476.0 100, 476.0 84, 627 84" fill="none" stroke="#7c3aed" stroke-width="1.6"/>
<polygon points="627,79.5 636,84 627,88.5" fill="#7c3aed"/>
<path d="M 316 230 C 354.0 230, 354.0 140, 383 140" fill="none" stroke="#e11d48" stroke-width="1.6"/>
<polygon points="383,135.5 392,140 383,144.5" fill="#e11d48"/>
<path d="M 516 140 C 576.0 140, 576.0 140, 627 140" fill="none" stroke="#e11d48" stroke-width="1.6"/>
<polygon points="627,135.5 636,140 627,144.5" fill="#e11d48"/>
<path d="M 316 230 C 354.0 230, 354.0 196, 383 196" fill="none" stroke="#2563eb" stroke-width="1.6"/>
<polygon points="383,191.5 392,196 383,200.5" fill="#2563eb"/>
<path d="M 516 196 C 576.0 196, 576.0 196, 627 196" fill="none" stroke="#2563eb" stroke-width="1.6"/>
<polygon points="627,191.5 636,196 627,200.5" fill="#2563eb"/>
<path d="M 316 230 C 354.0 230, 354.0 252, 383 252" fill="none" stroke="#f59e0b" stroke-width="1.6"/>
<polygon points="383,247.5 392,252 383,256.5" fill="#f59e0b"/>
<path d="M 516 252 C 576.0 252, 576.0 252, 627 252" fill="none" stroke="#f59e0b" stroke-width="1.6" stroke-dasharray="5 3"/>
<polygon points="627,247.5 636,252 627,256.5" fill="#f59e0b"/>
<path d="M 316 230 C 354.0 230, 354.0 308, 383 308" fill="none" stroke="#059669" stroke-width="1.6"/>
<polygon points="383,303.5 392,308 383,312.5" fill="#059669"/>
<path d="M 516 308 C 576.0 308, 576.0 308, 627 308" fill="none" stroke="#059669" stroke-width="1.6"/>
<polygon points="627,303.5 636,308 627,312.5" fill="#059669"/>
<path d="M 316 230 C 354.0 230, 354.0 364, 383 364" fill="none" stroke="#0891b2" stroke-width="1.6"/>
<polygon points="383,359.5 392,364 383,368.5" fill="#0891b2"/>
<path d="M 516 364 C 576.0 364, 576.0 364, 627 364" fill="none" stroke="#0891b2" stroke-width="1.6" stroke-dasharray="5 3"/>
<polygon points="627,359.5 636,364 627,368.5" fill="#0891b2"/>
<text x="470.0" y="454" text-anchor="middle" font-size="9.5" fill="#94a3b8">컴퓨트 노드는 점선 표시된 br-lbaas · br-stor-cluster 만 제외하고 동일하다</text>
</svg>